<svg aria-hidden="true" style="position: absolute; width: 0; height: 0; overflow: hidden;" version="1.1" xmlns="http://www.w3.org/2000/svg" xmlns:xlink="http://www.w3.org/1999/xlink">
<defs>
<symbol id="icon-burger" viewBox="0 0 32 32">
<path  stroke-linejoin="miter" stroke-linecap="butt" stroke-miterlimit="4" stroke-width="1.6" d="M0 6.402h32M0 16.002h32M0 25.602h32"></path>
</symbol>
<symbol id="icon-close" viewBox="0 0 32 32">
<path  stroke-linejoin="miter" stroke-linecap="butt" stroke-miterlimit="4" stroke-width="2" d="M2.522 2.001l26.978 28.018M2.001 29.499l28.018-26.978"></path>
</symbol>
<symbol id="icon-tick" viewBox="0 0 32 32">
<path  stroke-linejoin="round" stroke-linecap="round" stroke-miterlimit="4" stroke-width="6.4" d="M6.751 3.2l16.826 12.8-16.826 12.8"></path>
</symbol>
<symbol id="icon-house" viewBox="0 0 32 32">
<path fill="#d31342" style="fill: var(--color3, #d31342)" d="M31.631 15.653c0.237-0.258 0.382-0.604 0.382-0.983 0-0.439-0.194-0.832-0.501-1.099l-0.002-0.002-13.642-11.936c-0.293-0.248-0.676-0.399-1.094-0.399-0.431 0-0.825 0.161-1.124 0.425l0.002-0.002-13.687 12.549c-0.292 0.266-0.474 0.647-0.474 1.071 0 0.392 0.155 0.747 0.408 1.007l-0-0 0.345 0.357c0.566 0.591 1.487 0.665 2.054 0.158l1.022-0.916v13.411c0 0.825 0.665 1.49 1.49 1.49h5.331c0.822 0 1.49-0.665 1.49-1.49v-9.382h6.809v9.382c-0.012 0.822 0.576 1.49 1.399 1.49h5.654c0.822 0 1.487-0.665 1.487-1.49v-13.224l0.633 0.557c0.347 0.305 1.079 0.059 1.63-0.549l0.389-0.426z"></path>
</symbol>
<symbol id="icon-git-icon" viewBox="0 0 32 32">
<path  d="M16 0c-8.789 0-16 7.211-16 16 0 7.499 5.262 14.312 12.25 16v-5.293c-0.276 0.070-0.593 0.109-0.919 0.109-0.398 0-0.781-0.059-1.143-0.169l0.028 0.007c-0.946-0.278-1.714-0.909-2.285-1.869-0.363-0.613-1.008-1.28-1.68-1.23l-0.165-1.867c1.454-0.125 2.71 0.886 3.456 2.139 0.333 0.558 0.715 0.885 1.205 1.029 0.472 0.141 0.981 0.074 1.573-0.136 0.149-1.186 0.693-1.629 1.104-2.256-4.168-0.621-5.829-2.832-6.488-4.576-0.874-2.318-0.405-5.213 1.139-7.043 0.030-0.035 0.085-0.128 0.064-0.192-0.709-2.141 0.154-3.91 0.186-4.098 0.818 0.24 0.95-0.243 3.552 1.336l0.448 0.27c0.189 0.112 0.128 0.048 0.317 0.032 1.003-0.282 2.157-0.452 3.349-0.469l0.010-0c1.136 0.014 2.272 0.176 3.403 0.483l0.146 0.016c-0.013-0.003 0.040-0.010 0.128-0.062 3.248-1.968 3.131-1.325 4.003-1.608 0.032 0.189 0.882 1.987 0.182 4.099-0.096 0.291 2.816 2.957 1.202 7.235-0.659 1.744-2.32 3.957-6.486 4.578 0.534 0.816 1.176 1.248 1.173 2.928v6.606c6.986-1.688 12.25-8.501 12.25-16 0-8.789-7.211-16-16-16z"></path>
</symbol>
<symbol id="icon-telegram" viewBox="0 0 32 32">
<path fill="#fff" style="fill: var(--color2, #fff)" d="M12.617 19.68l-0.49 6.446c0.703 0 1.007-0.282 1.372-0.62l3.293-2.939 6.824 4.666c1.251 0.65 2.135 0.307 2.474-1.075l4.479-19.594c0.399-1.727-0.669-2.402-1.887-1.979l-26.332 9.41c-1.797 0.652-1.771 1.586-0.306 2.012l6.731 1.953 15.638-9.132c0.736-0.455 1.406-0.204 0.856 0.252l-12.652 10.6z"></path>
</symbol>
<symbol id="icon-faceboock" viewBox="0 0 32 32">
<path  d="M22.152 15.977h-4.035v14.871h-6.114v-14.871h-2.907v-5.224h2.907v-3.383c0-2.418 1.142-6.206 6.169-6.206l4.528 0.019v5.074h-3.286c-0.538 0-1.298 0.272-1.298 1.426v3.075h4.569l-0.534 5.221z"></path>
</symbol>
</defs>
</svg>
